<?xml version="1.0" encoding="UTF-8"?><svg xmlns="http://www.w3.org/2000/svg" xmlns:xlink="http://www.w3.org/1999/xlink" version="1.1" id="Layer_1" x="0px" y="0px" viewBox="0 0 16 16" xml:space="preserve"><path d="M3.698 12.651h6.317V14H3.698z"/><path transform="matrix(0.9853 -0.171 0.171 0.9853 -0.3592 2.2838)" d="M12.403.069h1.349v6.317h-1.349z"/><path transform="matrix(0.0918 -0.9958 0.9958 0.0918 -4.7975 17.0736)" d="M6.286 8.008h1.349v6.317H6.286z"/><path transform="matrix(0.2596 -0.9657 0.9657 0.2596 -3.1047 13.6616)" d="M6.683 5.697h1.349v6.317H6.683z"/><path transform="matrix(0.508 -0.8613 0.8613 0.508 -1.4709 10.3396)" d="M7.641 3.299H8.99v6.317H7.641z"/><path transform="matrix(0.8262 -0.5634 0.5634 0.8262 -0.6226 6.5951)" d="M9.702 1.148h1.349v6.317H9.702z"/><path d="M11 15H3v-5H2v6h10v-6h-1z"/><metadata><rdf:RDF xmlns:rdf="http://www.w3.org/1999/02/22-rdf-syntax-ns#" xmlns:rdfs="http://www.w3.org/2000/01/rdf-schema#" xmlns:dc="http://purl.org/dc/elements/1.1/"><rdf:Description about="https://iconscout.com/legal#licenses" dc:title="stack,overflow,logo,solid,e" dc:description="stack,overflow,logo,solid,e" dc:publisher="Iconscout" dc:date="2018-03-05" dc:format="image/svg+xml" dc:language="en"><dc:creator><rdf:Bag><rdf:li>Pixel Icons</rdf:li></rdf:Bag></dc:creator></rdf:Description></rdf:RDF></metadata></svg>